<svg id="Capa_1" data-name="Capa 1" xmlns="http://www.w3.org/2000/svg" viewBox="0 0 1080 1080"><rect x="81.59" y="543.71" width="110.27" height="30.21"/><polygon points="181.32 600.92 81.59 600.92 81.59 622.82 81.59 632.89 81.59 683.71 118.99 683.71 118.99 632.89 181.32 632.89 181.32 600.92"/><path d="M242.87,628.63V543.71h-36v77.54a61.87,61.87,0,0,0,62.46,62.46c35,0,63.3-29.11,63.3-64.08,0-3.2.12-8.31.12-8.31V543.71H295.94l.06,83-.06,1.9c-1.61,8.37-11.46,17.71-25.84,17.71-14.22,0-24.75-7.44-27.22-17.52"/><rect x="385.68" y="652.87" width="61.68" height="30.84"/><path d="M379.67,569.5V682.79H347.79V543.29H350A89.63,89.63,0,0,0,379.67,569.5Z"/><path d="M494.26,545.63V682.79H462.4V571.53A89.31,89.31,0,0,0,494.26,545.63Z"/><rect x="500.28" y="652.87" width="61.68" height="30.84"/><rect x="723.07" y="652.97" width="115.64" height="30.74"/><rect x="723.07" y="597.67" width="105" height="30.74"/><rect x="723.07" y="543.71" width="115.64" height="30.74"/><path d="M647.12,543.71H577v31.57h60.85a39.3,39.3,0,0,1,39.31,39.3h0a39,39,0,0,1-39,39H577v30.13h70.63a60.48,60.48,0,0,0,60.48-60.48V604.66A61,61,0,0,0,647.12,543.71Z"/><path d="M491.05,433.11a85,85,0,1,0-139.81,96.65c.79,1.16,1.63,2.31,2.5,3.42a84.82,84.82,0,0,0,24.81,21.72,85,85,0,0,0,109.77-21.72c.78-1,1.52-2,2.24-3a82,82,0,0,0,6.9-11.7,21.72,21.72,0,0,0,3-6.83,85.1,85.1,0,0,0-9.38-78.5ZM459.57,545.43l-.5.31a75.34,75.34,0,0,1-8.06,4.11,64.89,64.89,0,0,0,5.3-7.1,70.38,70.38,0,0,1-19.52,7.65,26,26,0,0,1-31.52,0,70.38,70.38,0,0,1-19.52-7.65,64.89,64.89,0,0,0,5.3,7.1,73.75,73.75,0,0,1-8.07-4.12c-1.52-.9-3-1.84-4.43-2.84l-.8-.55c-1.42-1-2.81-2.07-4.15-3.18a45.93,45.93,0,0,0,4.85-1l.1.18v-.2l.12,0-.12-.08-.29-.22a70.62,70.62,0,0,1-5.46-4.6c-.67-.61-1.31-1.24-1.94-1.88-5.55.23-7.64-2.58-6.62-7.64a70.49,70.49,0,0,1-5.69-8.91c-.73,1.67-1.35,3.26-1.85,4.79-.89-1.5-1.73-3-2.53-4.59a74.64,74.64,0,0,1-8-32.25c0-.47,0-.95,0-1.43q0-3,.23-5.9a56,56,0,0,0,3.71,6.11v-.21a70.56,70.56,0,0,1,2.45-18.49c-1.66-7.6,1.14-13.51,7.32-17.39a71,71,0,0,1,10-13.2,59.39,59.39,0,0,0-6.84,1.73,71.61,71.61,0,0,1,4.81-5.33,75.06,75.06,0,0,1,23.17-15.91,66.41,66.41,0,0,0-5.31,7.11,70.32,70.32,0,0,1,19.54-7.65,25.94,25.94,0,0,1,31.48,0,70.32,70.32,0,0,1,19.54,7.65,66.41,66.41,0,0,0-5.31-7.11,73.89,73.89,0,0,1,8.07,4.14c2.16,1.27,4.24,2.65,6.25,4.12q2.12,1.57,4.11,3.25a50.25,50.25,0,0,0-5.06,1,72.33,72.33,0,0,1,7.91,7.14c5,0,6.91,2.65,6.09,7.3a70,70,0,0,1,5.51,8.85,48.57,48.57,0,0,0,1.84-4.84c.9,1.52,1.73,3.08,2.51,4.67a74.12,74.12,0,0,1,7.43,27.35c.12,1.65.19,3.32.2,5,0,.21,0,.41,0,.61q0,3.21-.27,6.35c-.56-1-1.15-2-1.79-2.95a8.57,8.57,0,0,0,.19-1.84,8.38,8.38,0,0,0-2.19-5.68c.08,1.36.12,2.73.12,4.12,0,.22,0,.45,0,.66a68,68,0,0,1-.39,6.88h0c-.18,1.77-.43,3.51-.76,5.25s-.7,3.46-1.14,5.16c2,8.12-1,14.39-7.72,18.34a70.77,70.77,0,0,1-12.36,15.35,65.37,65.37,0,0,0,6.87-1.32c-.48.53-1,1.06-1.47,1.58-1.14,1.18-2.33,2.33-3.55,3.46A74,74,0,0,1,459.57,545.43Z"/><path d="M491.05,433.11a85,85,0,1,0-139.81,96.65c.79,1.16,1.63,2.31,2.5,3.42a84.82,84.82,0,0,0,24.81,21.72,85,85,0,0,0,109.77-21.72c.78-1,1.52-2,2.24-3a82,82,0,0,0,6.9-11.7c1.09-2.22,2.09-4.5,3-6.83a85.1,85.1,0,0,0-9.38-78.5ZM459.57,545.43l-.5.31a75.34,75.34,0,0,1-8.06,4.11,74.94,74.94,0,0,1-68-4.12c-1.52-.9-3-1.84-4.43-2.84l-.8-.55c-1.42-1-2.81-2.07-4.15-3.18a74.74,74.74,0,0,1-6.48-6,75.66,75.66,0,0,1-10.42-13.64c-.89-1.5-1.73-3-2.53-4.59a74.64,74.64,0,0,1-8-32.25c0-.47,0-.95,0-1.43q0-3,.23-5.9a74.46,74.46,0,0,1,16.66-41.45,71.61,71.61,0,0,1,4.81-5.33A74.91,74.91,0,0,1,451,412.68a73.89,73.89,0,0,1,8.07,4.14c2.16,1.27,4.24,2.65,6.25,4.12q2.12,1.57,4.11,3.25a74.73,74.73,0,0,1,16.29,19.46c.9,1.52,1.73,3.08,2.51,4.67a74.12,74.12,0,0,1,7.43,27.35c.12,1.65.19,3.32.2,5,0,.21,0,.41,0,.61q0,3.21-.27,6.35c-.08.95-.18,1.9-.3,2.84a74.46,74.46,0,0,1-18.89,41.14c-.48.53-1,1.06-1.47,1.58-1.14,1.18-2.33,2.33-3.55,3.46A74,74,0,0,1,459.57,545.43Z"/><path d="M476.55,479q0-2.26-.15-4.5h0c-.08-1.76-.18-3.5-.34-5.23-.12-1.45-.26-2.89-.43-4.32l-.84-.7.64-.92c-.17-1.36-.37-2.72-.58-4.06-.44-2.74-1-5.43-1.55-8.07-.91,1.48-1.93,3-3.07,4.65-.35-1.81-.73-3.58-1.15-5.34a114.2,114.2,0,0,0-3.88-12.78c-.46-1.24-.93-2.46-1.43-3.67,1.35-.45,2.63-.81,3.83-1.08-1.1-2.65-2.28-5.22-3.55-7.68-1.25.31-2.55.69-3.87,1.11-.62-1.19-1.27-2.35-1.93-3.48s-1.27-2.1-1.94-3.12a66.41,66.41,0,0,0-5.31-7.11,73.89,73.89,0,0,1,8.07,4.14c-5.42-8.1-11.71-14.26-18.56-18.28a85.31,85.31,0,0,0-39,0c-6.85,4-13.14,10.17-18.57,18.28a74.26,74.26,0,0,1,8.09-4.15,66.41,66.41,0,0,0-5.31,7.11,78.64,78.64,0,0,0-4.19,7.21c-.68,1.31-1.33,2.65-2,4-1.53.09-3,.22-4.49.38q-2,4.72-3.64,9.78c1.4-.26,2.85-.48,4.38-.63-.46,1.35-.91,2.73-1.31,4.13-.1.31-.19.61-.28.93-.4,1.42-.78,2.86-1.15,4.34a8.45,8.45,0,0,0-2.62,14.22c-.19,1.47-.34,2.95-.49,4.46h0c-.38,4.11-.57,8.33-.57,12.62v.41c0,1.85.05,3.68.13,5.5-1.43-1.25-2.78-2.53-4.05-3.81.05,3.73.24,7.44.59,11.08.14,1.57.31,3.12.51,4.66l.64.54-.48.69c.21,1.53.44,3,.7,4.54q.69,4,1.6,7.86,1.31-2.13,2.94-4.46l.15.11c.35,1.7.73,3.38,1.16,5a107.17,107.17,0,0,0,4,12.56c.46,1.24,1,2.45,1.48,3.64a39.52,39.52,0,0,1-3.84,1.1c.35.83.71,1.66,1.09,2.47.72,1.57,1.46,3.1,2.24,4.6l.19.35.1.18v-.2l.12,0c1.19-.31,2.42-.67,3.67-1.07.63,1.18,1.29,2.33,2,3.45.46.79.94,1.54,1.44,2.29a64.89,64.89,0,0,0,5.3,7.1,73.75,73.75,0,0,1-8.07-4.12c5.43,8.1,11.72,14.28,18.58,18.29a85.65,85.65,0,0,0,38.92,0c6.86-4,13.16-10.18,18.59-18.28a75.34,75.34,0,0,1-8.06,4.11,64.89,64.89,0,0,0,5.3-7.1c1.08-1.64,2.12-3.37,3.09-5.16h.17v-.3c.66-1.2,1.29-2.43,1.89-3.68,1.55-.06,3.05-.16,4.51-.29l.06-.14a102.67,102.67,0,0,0,4.51-11.67c-1.4.24-2.85.45-4.37.6.46-1.35.91-2.73,1.32-4.12a129.85,129.85,0,0,0,5.14-36.72c0-.18,0-.38,0-.57,0-1.85,0-3.68-.12-5.5.71.63,1.41,1.26,2.08,1.89S475.91,478.35,476.55,479ZM421,555.73a27.13,27.13,0,0,1-15.76-5.33A47.81,47.81,0,0,1,393,537.07c-.69-1.08-1.37-2.21-2-3.36,1.18-.51,2.38-1.06,3.6-1.63l-.06-.1a77.69,77.69,0,0,1-3.77-7.65c-1.2.63-2.37,1.23-3.51,1.78q-.78-1.79-1.47-3.66c-.82-2.15-1.58-4.39-2.26-6.69q-.79-2.7-1.47-5.5c1.56,1,3.17,1.93,4.79,2.86A108,108,0,0,1,384,499.43c-.08-.52-.15-1-.22-1.56q-.25-1.8-.42-3.66-.09-.76-.15-1.53c-.35-3.74-.51-7.55-.51-11.41v-.55c-1.34,1.45-2.64,2.89-3.88,4.3q-.06-1.86-.06-3.75c0-.71,0-1.41,0-2.11,0-3.16.21-6.27.49-9.31.12-1.46.27-2.91.45-4.34A8.43,8.43,0,0,0,382.13,452q.51-2.15,1.11-4.2c.35-1.23.72-2.43,1.11-3.61s.9-2.64,1.38-3.91c1.34,0,2.72.12,4.12.23a76.22,76.22,0,0,1,4.28-9.15c-1.46-.13-2.9-.23-4.31-.3.68-1.32,1.39-2.59,2.12-3.82a49.45,49.45,0,0,1,13.35-15.05,25.94,25.94,0,0,1,31.48,0,48.25,48.25,0,0,1,12.78,14.14q1,1.64,2,3.39c-1.18.51-2.38,1.05-3.6,1.63a76.26,76.26,0,0,1,3.83,8c1.2-.63,2.38-1.23,3.53-1.77.49,1.2,1,2.42,1.41,3.67q1.31,3.57,2.37,7.41c.49,1.77.94,3.59,1.36,5.43-1.54-1-3.11-1.89-4.71-2.81a112,112,0,0,1,2.58,13.29h0v0c1.12.72,2.22,1.45,3.29,2.18-.86,1-1.75,2-2.67,3l-.05,0a.17.17,0,0,1,0,.07c.35,3.74.51,7.56.51,11.43,0,.6,0,1.19,0,1.78,1.36-1.45,2.67-2.9,3.92-4.33q0,1.27,0,2.55c0,1.12,0,2.25,0,3.36a118.82,118.82,0,0,1-5.6,33.86c-.44,1.33-.9,2.63-1.39,3.9-1.34,0-2.72-.12-4.12-.23a77.29,77.29,0,0,1-4.66,9.82c-.2.37-.42.74-.64,1.09,1.47.16,2.92.28,4.34.37-.73,1.31-1.49,2.58-2.27,3.79a47.8,47.8,0,0,1-12.16,13.17A27.16,27.16,0,0,1,421,555.73Z"/><path d="M472.62,480.7c0-1.85,0-3.68-.12-5.5,0-.41,0-.82-.07-1.23-.09-2-.24-4-.43-5.89-.22-2.25-.48-4.48-.82-6.66q-.4-2.85-.95-5.59c-.35-1.81-.73-3.58-1.15-5.34a114.2,114.2,0,0,0-3.88-12.78c-.46-1.24-.93-2.46-1.43-3.67q-1.66-4-3.59-7.65c-.62-1.19-1.27-2.35-1.93-3.48s-1.27-2.1-1.94-3.12a66.41,66.41,0,0,0-5.31-7.11c-8.45-9.87-18.79-15.68-30-15.68s-21.52,5.81-30,15.68a66.41,66.41,0,0,0-5.31,7.11,78.64,78.64,0,0,0-4.19,7.21c-.68,1.31-1.33,2.65-2,4a96.87,96.87,0,0,0-3.75,9.53c-.46,1.35-.91,2.73-1.31,4.13-.1.31-.19.61-.28.93-.4,1.42-.78,2.86-1.15,4.34a125.21,125.21,0,0,0-2.62,14.22c-.19,1.47-.34,2.95-.49,4.46h0c-.38,4.11-.57,8.33-.57,12.62v.41c0,1.85.05,3.68.13,5.5,0,.86.07,1.72.12,2.56.12,2,.29,3.93.5,5.86.24,2.42.56,4.79.93,7.11q.45,2.76,1,5.42c0,.09,0,.18.05.26.35,1.7.73,3.38,1.16,5a107.17,107.17,0,0,0,4,12.56c.46,1.24,1,2.45,1.48,3.64q1.65,3.87,3.57,7.4c.63,1.18,1.29,2.33,2,3.45.46.79.94,1.54,1.44,2.29a64.89,64.89,0,0,0,5.3,7.1c8.44,9.88,18.8,15.69,30,15.69s21.54-5.81,30-15.69a64.89,64.89,0,0,0,5.3-7.1c1.08-1.64,2.12-3.37,3.09-5.16l.17-.3c.66-1.2,1.29-2.43,1.89-3.68.08-.15.15-.28.22-.43a99.49,99.49,0,0,0,4.49-11.07c.46-1.35.91-2.73,1.32-4.12a129.85,129.85,0,0,0,5.14-36.72C472.63,481.09,472.63,480.89,472.62,480.7Zm-51.59,75a27.13,27.13,0,0,1-15.76-5.33A47.81,47.81,0,0,1,393,537.07c-.69-1.08-1.37-2.21-2-3.36a77.85,77.85,0,0,1-3.74-7.6q-.78-1.79-1.47-3.66c-.82-2.15-1.58-4.39-2.26-6.69q-.79-2.7-1.47-5.5h0c-.55-2.23-1-4.5-1.43-6.83h0c-.3-1.71-.57-3.44-.8-5.2-.15-1.07-.28-2.15-.39-3.25-.18-1.73-.33-3.49-.44-5.27-.11-1.54-.18-3.1-.21-4.67q-.06-1.86-.06-3.75c0-.71,0-1.41,0-2.11,0-3.16.21-6.27.49-9.31.12-1.46.27-2.91.45-4.34A114.82,114.82,0,0,1,382.13,452q.51-2.15,1.11-4.2c.35-1.23.72-2.43,1.11-3.61s.9-2.64,1.38-3.91a82.76,82.76,0,0,1,4.09-9.22c.68-1.32,1.39-2.59,2.12-3.82a49.45,49.45,0,0,1,13.35-15.05,25.94,25.94,0,0,1,31.48,0,48.25,48.25,0,0,1,12.78,14.14q1,1.64,2,3.39a82.39,82.39,0,0,1,3.76,7.89c.49,1.2,1,2.42,1.41,3.67q1.31,3.57,2.37,7.41c.49,1.77.94,3.59,1.36,5.43.47,2.12.89,4.27,1.25,6.48.28,1.72.53,3.48.75,5.25.07.55.12,1.11.18,1.67.19,1.74.34,3.48.46,5.25q.19,3,.24,6,0,1.27,0,2.55c0,1.12,0,2.25,0,3.36a118.82,118.82,0,0,1-5.6,33.86c-.44,1.33-.9,2.63-1.39,3.9a80.36,80.36,0,0,1-5.08,11.05c-.73,1.31-1.49,2.58-2.27,3.79a47.8,47.8,0,0,1-12.16,13.17A27.16,27.16,0,0,1,421,555.73Z"/><path d="M372.16,508.39c.35,1.7.73,3.38,1.16,5,.58-.92,1.22-1.87,1.92-2.88C374.2,509.84,373.17,509.12,372.16,508.39Zm0,0c.35,1.7.73,3.38,1.16,5,.58-.92,1.22-1.87,1.92-2.88C374.2,509.84,373.17,509.12,372.16,508.39Zm118.89-75.28a84.88,84.88,0,0,0-10.39-12.38,22,22,0,0,0-4.83-.79c-.56,0-1.13-.05-1.71-.05a41.77,41.77,0,0,0-8.8,1.05q2.12,1.57,4.11,3.25a50.25,50.25,0,0,0-5.06,1l-.32.08c-1.25.31-2.55.69-3.87,1.11-.62-1.19-1.27-2.35-1.93-3.48q-4.19,1.39-8.7,3.37,1,1.64,2,3.39c-1.18.51-2.38,1.05-3.6,1.63-3.81,1.8-7.76,3.89-11.8,6.24-1.42.82-2.86,1.68-4.3,2.58q-2.32-.87-4.7-1.67c-3.49,2.22-7,4.61-10.52,7.14q2.36.68,4.71,1.46c-1.33.93-2.67,1.89-4,2.87-.8.58-1.6,1.17-2.4,1.78q-1.77,1.33-3.53,2.71a8.53,8.53,0,0,0-2.64-.42,8.44,8.44,0,0,0-8.45,8.44,8,8,0,0,0,.07,1.1q-1.68,1.47-3.32,3c-4.59,4.17-9.06,8.54-13.29,13-.38.39-.74.79-1.1,1.18-1.34,1.45-2.64,2.89-3.88,4.3q-.06-1.86-.06-3.75c0-.71,0-1.41,0-2.11q-2.82,3.07-5.34,6.08c-.89,1-1.73,2.05-2.55,3.06l-1.16,1.44q-1.89,2.38-3.58,4.71c-.65.88-1.27,1.74-1.87,2.6.78.69,1.57,1.38,2.38,2.06l.64.54-.48.69c-.59.88-1.17,1.74-1.72,2.6a86.58,86.58,0,0,0-6.5,11.81c-.73,1.67-1.35,3.26-1.85,4.79-.89-1.5-1.73-3-2.53-4.59-2.23,5.57-3.25,10.58-2.93,14.81.79,1.16,1.63,2.31,2.5,3.42a85.41,85.41,0,0,0,8.83,9.79,22.45,22.45,0,0,0,3.94.54c.55,0,1.13,0,1.71,0h0a42.61,42.61,0,0,0,9.52-1.22c-1.42-1-2.81-2.07-4.15-3.18a45.93,45.93,0,0,0,4.85-1l.1.18v-.2l.12,0c1.19-.31,2.42-.67,3.67-1.07.63,1.18,1.29,2.33,2,3.45q4.19-1.41,8.7-3.39c-.69-1.08-1.37-2.21-2-3.36,1.18-.51,2.38-1.06,3.6-1.63,3.47-1.65,7.06-3.53,10.72-5.64,1.42-.81,2.86-1.66,4.3-2.54,1.54.59,3.1,1.15,4.65,1.69q4.67-2.93,9.37-6.23h0l2.89-2.07-1-.3c-1.23-.37-2.46-.74-3.68-1.15q2-1.4,4-2.87a248.53,248.53,0,0,0,32.78-29.05c.27-.28.54-.58.8-.87,1.36-1.45,2.67-2.9,3.92-4.33q0,1.27,0,2.55c0,1.12,0,2.25,0,3.36q3.21-3.48,6.06-6.88c.88-1,1.71-2.06,2.53-3.08.19-.23.38-.46.55-.7,1.28-1.59,2.5-3.17,3.63-4.72.62-.83,1.2-1.65,1.77-2.46-.72-.63-1.45-1.25-2.2-1.86l-.84-.7.64-.92c.55-.79,1.07-1.58,1.57-2.36a85.17,85.17,0,0,0,6.88-12.46,48.57,48.57,0,0,0,1.84-4.84c.9,1.52,1.73,3.08,2.51,4.67C490.53,442.55,491.5,437.42,491.05,433.11ZM473.3,451.18c-.91,1.48-1.93,3-3.07,4.65-.35-1.81-.73-3.58-1.15-5.34-.65,1-1.33,2-2.09,3.1s-1.5,2.07-2.35,3.19-1.9,2.46-3,3.77-2.17,2.62-3.38,4h0c1.12.72,2.22,1.45,3.29,2.18-.86,1-1.75,2-2.67,3l-.05,0a.17.17,0,0,1,0,.07c-2.65,2.93-5.54,6-8.68,9.12a301,301,0,0,1-35.42,30.2c-1.3.94-2.59,1.86-3.87,2.74q-2.19-.88-4.35-1.82c-4,2.74-7.89,5.22-11.59,7.4,1.41.7,2.83,1.39,4.27,2-1.39.84-2.77,1.65-4.11,2.42s-2.95,1.65-4.38,2.38c-1.2.63-2.37,1.23-3.51,1.78q-.78-1.79-1.47-3.66a67.52,67.52,0,0,1-8.49,3.52c.46,1.24,1,2.45,1.48,3.64a39.52,39.52,0,0,1-3.84,1.1,27.69,27.69,0,0,1-3.09.52c-.33,0-.67.06-1,.07-5.55.23-7.64-2.58-6.62-7.64.59-2.94,2.22-6.63,4.83-10.92q1.31-2.13,2.94-4.46l.15.11c.35,1.7.73,3.38,1.16,5,.58-.92,1.22-1.87,1.92-2.88s1.48-2.07,2.31-3.19,1.95-2.56,3.07-3.92h0c1-1.28,2.14-2.61,3.34-4l.78-.91c-.33-.21-.67-.42-1-.65q-.25-1.8-.42-3.66c.25-.29.52-.6.79-.89q3.78-4.19,8.23-8.62c3.72-3.71,7.58-7.36,11.52-10.88,1.15-1,2.31-2.05,3.47-3.06a8.25,8.25,0,0,0,1.42.12,8.45,8.45,0,0,0,8.45-8.33c1.21-1,2.42-1.92,3.62-2.86,2.61-2,5.21-3.95,7.78-5.79,1.3-.95,2.58-1.85,3.86-2.73q2.19.88,4.33,1.84c3.47-2.35,6.84-4.51,10.08-6.43q-2.12-1.05-4.28-2,2.1-1.28,4.12-2.45c1.72-1,3.41-1.92,5.05-2.78,1.2-.63,2.38-1.23,3.53-1.77.49,1.2,1,2.42,1.41,3.67a67.61,67.61,0,0,1,8.5-3.52c-.46-1.24-.93-2.46-1.43-3.67,1.35-.45,2.63-.81,3.83-1.08a22.89,22.89,0,0,1,3.1-.53,14.63,14.63,0,0,1,1.58-.09c5,0,6.91,2.65,6.09,7.3C477.85,442.69,476.13,446.6,473.3,451.18ZM372.16,508.39c.35,1.7.73,3.38,1.16,5,.58-.92,1.22-1.87,1.92-2.88C374.2,509.84,373.17,509.12,372.16,508.39Zm0,0c.35,1.7.73,3.38,1.16,5,.58-.92,1.22-1.87,1.92-2.88C374.2,509.84,373.17,509.12,372.16,508.39Z"/><path d="M475.6,423.88a31.56,31.56,0,0,0-6.17.31,50.25,50.25,0,0,0-5.06,1l-.32.08c-1.25.31-2.55.69-3.87,1.11-2.76.89-5.65,2-8.65,3.28-1.18.51-2.38,1.05-3.6,1.63-3.81,1.8-7.76,3.89-11.8,6.24-1.42.82-2.86,1.68-4.3,2.58-3.46,2.13-7,4.45-10.51,6.93-1.33.93-2.67,1.89-4,2.87-.8.58-1.6,1.17-2.4,1.78q-1.77,1.33-3.53,2.71c-3.72,2.9-7.41,5.95-11,9.12q-1.68,1.47-3.32,3c-4.59,4.17-9.06,8.54-13.29,13-.38.39-.74.79-1.1,1.18-1.34,1.45-2.64,2.89-3.88,4.3-.81.92-1.59,1.83-2.34,2.72s-1.73,2.07-2.55,3.09q-2,2.42-3.71,4.77c-1,1.37-2,2.72-2.93,4l-.48.69c-.59.88-1.17,1.74-1.72,2.6a86.58,86.58,0,0,0-6.5,11.81c-.73,1.67-1.35,3.26-1.85,4.79-1.82,5.57-2.09,10.22-.72,13.64,1.53,3.79,5.07,6.07,10.76,6.4a31.82,31.82,0,0,0,6.86-.42,45.93,45.93,0,0,0,4.85-1l.1,0,.12,0c1.19-.31,2.42-.67,3.67-1.07q4.14-1.35,8.65-3.3c1.18-.51,2.38-1.06,3.6-1.63,3.47-1.65,7.06-3.53,10.72-5.64,1.42-.81,2.86-1.66,4.3-2.54,4-2.45,8.11-5.15,12.21-8.06q2-1.4,4-2.87a248.53,248.53,0,0,0,32.78-29.05c.27-.28.54-.58.8-.87,1.36-1.45,2.67-2.9,3.92-4.33q1.56-1.75,3-3.49c.86-1,1.71-2.06,2.53-3.09,1.1-1.37,2.16-2.72,3.15-4.06s1.91-2.58,2.79-3.85l.64-.92c.55-.79,1.07-1.58,1.57-2.36a85.17,85.17,0,0,0,6.88-12.46,48.57,48.57,0,0,0,1.84-4.84C489.43,432.05,486.32,424.51,475.6,423.88Zm-2.3,27.3c-.91,1.48-1.93,3-3.07,4.65q-1.1,1.56-2.34,3.18c-1.63,2.17-3.46,4.43-5.46,6.79-.27.31-.54.64-.83,1-.86,1-1.75,2-2.67,3l0,0c-2.65,2.93-5.54,6-8.68,9.12a301,301,0,0,1-35.42,30.2c-1.3.94-2.59,1.86-3.87,2.74-4,2.8-7.92,5.35-11.67,7.63-1.39.84-2.77,1.65-4.11,2.42s-2.95,1.65-4.38,2.38c-1.2.63-2.37,1.23-3.51,1.78a75.7,75.7,0,0,1-8.48,3.5,39.52,39.52,0,0,1-3.84,1.1,27.69,27.69,0,0,1-3.09.52c-.33,0-.67.06-1,.07-5.55.23-7.64-2.58-6.62-7.64.59-2.94,2.22-6.63,4.83-10.92q1.31-2.13,2.94-4.46l.1-.15c.69-1,1.43-2,2.21-3q2.46-3.3,5.5-6.88c.52-.61,1.05-1.24,1.6-1.87s1.24-1.41,1.9-2.13c.25-.29.52-.6.79-.89q3.78-4.19,8.23-8.62c3.72-3.71,7.58-7.36,11.52-10.88,1.15-1,2.31-2.05,3.47-3.06,3.26-2.84,6.57-5.59,9.87-8.21,1.21-1,2.42-1.92,3.62-2.86,2.61-2,5.21-3.95,7.78-5.79,1.3-.95,2.58-1.85,3.86-2.73,3.46-2.39,6.86-4.61,10.13-6.61q2.1-1.28,4.12-2.45c1.72-1,3.41-1.92,5.05-2.78,1.2-.63,2.38-1.23,3.53-1.77a73.5,73.5,0,0,1,8.48-3.52c1.35-.45,2.63-.81,3.83-1.08a22.89,22.89,0,0,1,3.1-.53,14.63,14.63,0,0,1,1.58-.09c5,0,6.91,2.65,6.09,7.3C477.85,442.69,476.13,446.6,473.3,451.18Z"/><path d="M497.9,483.77v0c-.64-1-1.32-2.05-2-3.09,0,.21,0,.41,0,.61q0,3.21-.27,6.35c-.56-1-1.15-2-1.79-2.95a8.57,8.57,0,0,0,.19-1.84,8.44,8.44,0,0,0-8.31-8.45c-1.08-1.17-2.22-2.35-3.42-3.5q-2.11-2.08-4.44-4.09c-.72-.63-1.45-1.25-2.2-1.86l-.84-.7.64-.92c.55-.79,1.07-1.58,1.57-2.36-.71-.58-1.42-1.14-2.15-1.7s-1.26-1-1.91-1.46c-.89-.66-1.8-1.32-2.71-2-1.07-.76-2.15-1.51-3.24-2.24q-3.86-2.58-7.92-4.95c.49,1.77.94,3.59,1.36,5.43-1.54-1-3.11-1.89-4.71-2.81-2.87-1.63-5.82-3.2-8.85-4.68q-2.12-1.05-4.28-2,2.1-1.28,4.12-2.45-5.2-2.46-10.58-4.57c-1.42.82-2.86,1.68-4.3,2.58q-2.32-.87-4.7-1.67a154.2,154.2,0,0,0-15.26-4.31,131.68,131.68,0,0,0-17.74-2.83c-1.46-.13-2.9-.23-4.31-.3.68-1.32,1.39-2.59,2.12-3.82q-3.63-.26-7.12-.25c-1.1,0-2.18,0-3.26.06-.68,1.31-1.33,2.65-2,4-1.53.09-3,.22-4.49.38-1.79.2-3.52.47-5.19.78a59.39,59.39,0,0,0-6.84,1.73,71.61,71.61,0,0,1,4.81-5.33c-7.87,1.64-14.48,4.53-19.48,8.52a84.65,84.65,0,0,0-10.3,25.5c.1.81.23,1.64.4,2.47a50,50,0,0,0,7.69,17.62c0-.47,0-.95,0-1.43q0-3,.23-5.9a56,56,0,0,0,3.71,6.11,88,88,0,0,0,14.1,15.57c.78.69,1.57,1.38,2.38,2.06l.64.54-.48.69c-.59.88-1.17,1.74-1.72,2.6.79.65,1.6,1.3,2.42,1.94s1.63,1.26,2.47,1.89c.68.51,1.37,1,2.07,1.51l.15.11c1,.73,2,1.45,3.08,2.14,2.68,1.83,5.45,3.56,8.28,5.23q-.79-2.7-1.47-5.5c1.56,1,3.17,1.93,4.79,2.86q4,2.28,8.14,4.36c1.41.7,2.83,1.39,4.27,2-1.39.84-2.77,1.65-4.11,2.42,3.32,1.62,6.72,3.11,10.17,4.49,1.42-.81,2.86-1.66,4.3-2.54,1.54.59,3.1,1.15,4.65,1.69,2.58.91,5.19,1.74,7.82,2.51,1.5.43,3,.84,4.51,1.24a8.46,8.46,0,0,0,7.65,4.86,8.35,8.35,0,0,0,5.54-2.07h0c1.57.25,3.12.47,4.64.66.83.1,1.65.2,2.45.28,1.47.16,2.92.28,4.34.37-.73,1.31-1.49,2.58-2.27,3.79,3.11.25,6.15.38,9.1.38.46,0,.9,0,1.35,0h.17v-.3c.66-1.2,1.29-2.43,1.89-3.68,1.55-.06,3.05-.16,4.51-.29l1.47-.14c.71-.08,1.4-.16,2.09-.26h0a65.37,65.37,0,0,0,6.87-1.32c-.48.53-1,1.06-1.47,1.58-1.14,1.18-2.33,2.33-3.55,3.46a59.77,59.77,0,0,0,13-3.46,41.05,41.05,0,0,0,6.2-3,82,82,0,0,0,6.9-11.7,21.72,21.72,0,0,0,3-6.83,84.91,84.91,0,0,0,3.78-12.85A48.59,48.59,0,0,0,497.9,483.77Zm-45.72,38.39q-3.06-.24-6.31-.69c-1.59-.22-3.21-.47-4.86-.77a8.45,8.45,0,0,0-10.78-2.39c-1.24-.33-2.47-.66-3.7-1l-1-.3c-1.23-.37-2.46-.74-3.68-1.15q2-1.4,4-2.87c-3.72-1.13-7.4-2.42-11-3.81-1.3.94-2.59,1.86-3.87,2.74q-2.19-.88-4.35-1.82a159.6,159.6,0,0,1-21.83-11.56c-.33-.21-.67-.42-1-.65q-.25-1.8-.42-3.66c.25-.29.52-.6.79-.89l-.94-.64c-1.44-1-2.83-2-4.18-3q-1.31-1-2.55-1.95c-1.05-.82-2.07-1.66-3.05-2.5q-2.08-1.77-4-3.56c0,1.85.05,3.68.13,5.5-1.43-1.25-2.78-2.53-4.05-3.81-6.43-6.44-10.89-13.06-12.62-19.32-.12-.43-.22-.85-.31-1.27-1.66-7.6,1.14-13.51,7.32-17.39a33.61,33.61,0,0,1,11.57-4.2c1.4-.26,2.85-.48,4.38-.63-.46,1.35-.91,2.73-1.31,4.13a62.85,62.85,0,0,1,8.62-.56h1.19c.43-1.33.9-2.64,1.38-3.91,1.34,0,2.72.12,4.12.23a123.43,123.43,0,0,1,21,3.55q2.89.72,5.74,1.58,2.36.68,4.71,1.46c-1.33.93-2.67,1.89-4,2.87,3.81,1.18,7.58,2.51,11.28,4,1.3-.95,2.58-1.85,3.86-2.73q2.19.88,4.33,1.84a157,157,0,0,1,21.5,11.56h0c1.12.72,2.22,1.45,3.29,2.18-.86,1-1.75,2-2.67,3,1.42,1,2.8,1.94,4.14,2.92,1.11.83,2.2,1.67,3.25,2.51s2.06,1.67,3,2.52c1.14,1,2.23,2,3.27,2.95,0-1.85,0-3.68-.12-5.5.71.63,1.41,1.26,2.08,1.89s1.33,1.26,2,1.9c.35.33.69.69,1,1a8.18,8.18,0,0,0-.49,2.81,8.63,8.63,0,0,0,.63,3.22h0c1,1.2,2,2.4,2.85,3.6v0a8.39,8.39,0,0,0,4.95,1.6c.25,0,.5,0,.73,0a31.9,31.9,0,0,1,1.86,3.69,25.59,25.59,0,0,1,1.31,3.66c.06.21.12.42.17.63,2,8.12-1,14.39-7.72,18.34a34.53,34.53,0,0,1-11.36,3.94c-1.4.24-2.85.45-4.37.6.46-1.35.91-2.73,1.32-4.12a63.56,63.56,0,0,1-8.3.51h-1.5c-.44,1.33-.9,2.63-1.39,3.9C455,522.34,453.58,522.27,452.18,522.16Z"/><path d="M500.5,500.25a41.55,41.55,0,0,0-4.17-11.31c-.24-.45-.48-.88-.73-1.32-.56-1-1.15-2-1.79-2.95s-1.22-1.83-1.89-2.74a76.8,76.8,0,0,0-6.23-7.55c-1.08-1.17-2.22-2.35-3.42-3.5q-2.11-2.08-4.44-4.09c-.72-.63-1.45-1.25-2.2-1.86l-.84-.7c-1.17-1-2.38-1.89-3.61-2.81-1.06-.82-2.16-1.63-3.29-2.41s-2.14-1.5-3.25-2.23c-1.37-.93-2.77-1.84-4.21-2.71s-3.11-1.89-4.71-2.81c-2.87-1.63-5.82-3.2-8.85-4.68q-2.12-1.05-4.28-2-5.26-2.4-10.76-4.44-2.32-.87-4.7-1.67a154.2,154.2,0,0,0-15.26-4.31,131.68,131.68,0,0,0-17.74-2.83c-1.46-.13-2.9-.23-4.31-.3a94,94,0,0,0-10.22,0c-1.53.09-3,.22-4.49.38-1.79.2-3.52.47-5.19.78a59.39,59.39,0,0,0-6.84,1.73c-15.38,4.93-23.63,15.66-20.71,30.39a41,41,0,0,0,4.05,11.06,56,56,0,0,0,3.71,6.11,88,88,0,0,0,14.1,15.57c.78.69,1.57,1.38,2.38,2.06l.64.54c1.25,1,2.53,2.06,3.86,3.06,1.06.8,2.12,1.6,3.21,2.38s2.14,1.51,3.23,2.25q2.2,1.49,4.5,2.91h0c1.56,1,3.17,1.93,4.79,2.86q4,2.28,8.14,4.36c1.41.7,2.83,1.39,4.27,2,3.38,1.56,6.84,3,10.36,4.37,1.54.59,3.1,1.15,4.65,1.69,2.58.91,5.19,1.74,7.82,2.51,1.5.43,3,.84,4.51,1.24s2.94.74,4.42,1.07q4.49,1,8.77,1.72h0c1.57.25,3.12.47,4.64.66.83.1,1.65.2,2.45.28,1.47.16,2.92.28,4.34.37,2.87.19,5.66.26,8.35.22l1.89,0c1.55-.06,3.05-.16,4.51-.29l1.47-.14c.71-.08,1.4-.16,2.09-.26h0a65.37,65.37,0,0,0,6.87-1.32c9.7-2.43,17-6.94,21-13.16a21.72,21.72,0,0,0,3-6.83A26.27,26.27,0,0,0,500.5,500.25Zm-44.2,22.14c-1.34,0-2.72-.12-4.12-.23q-3.06-.24-6.31-.69c-1.59-.22-3.21-.47-4.86-.77q-4.62-.83-9.53-2.07l-1.25-.32c-1.24-.33-2.47-.66-3.7-1l-1-.3c-1.23-.37-2.46-.74-3.68-1.15q-5.54-1.77-10.9-3.94-2.19-.88-4.35-1.82a159.6,159.6,0,0,1-21.83-11.56c-.33-.21-.67-.42-1-.65-.79-.5-1.56-1-2.32-1.53s-1.33-.91-2-1.38q-2.9-2-5.54-4.13c-1-.84-2.07-1.68-3.05-2.53-.44-.37-.86-.73-1.28-1.12-1.43-1.25-2.78-2.53-4.05-3.81-6.43-6.44-10.89-13.06-12.62-19.32-.12-.43-.22-.85-.31-1.27-1.66-7.6,1.14-13.51,7.32-17.39a33.61,33.61,0,0,1,11.57-4.2c1.4-.26,2.85-.48,4.38-.63a74.74,74.74,0,0,1,9.88-.33c1.34,0,2.72.12,4.12.23a123.43,123.43,0,0,1,21,3.55q2.89.72,5.74,1.58,2.36.68,4.71,1.46,5.67,1.86,11.14,4.12,2.19.88,4.33,1.84a157,157,0,0,1,21.5,11.56h0c1.12.72,2.22,1.45,3.29,2.18l1,.71c2.18,1.53,4.27,3.09,6.24,4.67,1,.83,2.06,1.68,3,2.53l.62.53c.71.63,1.41,1.26,2.08,1.89s1.33,1.26,2,1.9c.35.33.69.69,1,1a57.51,57.51,0,0,1,8.69,11.23,31.9,31.9,0,0,1,1.86,3.69,25.59,25.59,0,0,1,1.31,3.66c.06.21.12.42.17.63,2,8.12-1,14.39-7.72,18.34a34.53,34.53,0,0,1-11.36,3.94c-1.4.24-2.85.45-4.37.6A75.07,75.07,0,0,1,456.3,522.39Z"/><path d="M408.75,470.88a8.25,8.25,0,0,1-1.42-.12c-1.16,1-2.32,2-3.47,3.06a12.42,12.42,0,0,1-6.81-7.32q1.63-1.5,3.32-3a8,8,0,0,1-.07-1.1,8.44,8.44,0,0,1,8.45-8.44,8.53,8.53,0,0,1,2.64.42q1.75-1.38,3.53-2.71a12.39,12.39,0,0,1,5.9,8c-1.2.94-2.41,1.88-3.62,2.86A8.45,8.45,0,0,1,408.75,470.88Z"/><path d="M417.2,462.43v.12a8.45,8.45,0,0,1-8.45,8.33,8.25,8.25,0,0,1-1.42-.12,8.44,8.44,0,0,1-7-7.23,8,8,0,0,1-.07-1.1,8.44,8.44,0,0,1,8.45-8.44,8.53,8.53,0,0,1,2.64.42A8.44,8.44,0,0,1,417.2,462.43Z"/><path d="M384.55,457.87a8.41,8.41,0,0,1-4.88,7.64c-.18,1.43-.33,2.88-.45,4.34a12.41,12.41,0,0,1-9.22-1.2h0c.15-1.51.3-3,.49-4.46A8.45,8.45,0,0,1,373.11,450c.37-1.48.75-2.92,1.15-4.34a12.45,12.45,0,0,1,1.84-.14,12.28,12.28,0,0,1,7.14,2.27q-.6,2.06-1.11,4.2A8.45,8.45,0,0,1,384.55,457.87Z"/><path d="M384.55,457.87a8.41,8.41,0,0,1-4.88,7.64,8.2,8.2,0,0,1-3.57.8,8.44,8.44,0,1,1,8.45-8.44Z"/><path d="M446.63,525.75a12.3,12.3,0,0,1-2.2,7c-1.52-.19-3.07-.41-4.64-.66h0a8.35,8.35,0,0,1-5.54,2.07,8.46,8.46,0,0,1-7.65-4.86c-1.51-.4-3-.81-4.51-1.24a12.92,12.92,0,0,1-.22-2.35,12.41,12.41,0,0,1,1.77-6.39h0A11.86,11.86,0,0,1,425.5,517l1,.3c1.23.36,2.46.69,3.7,1A8.45,8.45,0,0,1,441,520.7c1.65.3,3.27.55,4.86.77A12.43,12.43,0,0,1,446.63,525.75Z"/><path d="M442.69,525.75a8.46,8.46,0,0,1-2.9,6.38h0a8.35,8.35,0,0,1-5.54,2.07A8.45,8.45,0,1,1,441,520.7,8.35,8.35,0,0,1,442.69,525.75Z"/><path d="M497.94,482.83c0,.31,0,.62,0,.92v0a12,12,0,0,1-1.57,5.17,13.08,13.08,0,0,1-1,1.52,12.32,12.32,0,0,1-4.54,3.61,12,12,0,0,1-2.62.87,31.9,31.9,0,0,0-1.86-3.69c-.23,0-.48,0-.73,0a8.39,8.39,0,0,1-4.95-1.6v0a8.42,8.42,0,0,1-2.85-3.6h0a8.63,8.63,0,0,1-.63-3.22,8.18,8.18,0,0,1,.49-2.81c-.35-.34-.69-.7-1-1-.64-.64-1.29-1.27-2-1.9a11.9,11.9,0,0,1,1.82-2.6h0a12.48,12.48,0,0,1,5.87-3.6c1.2,1.15,2.34,2.33,3.42,3.5a8.44,8.44,0,0,1,8.31,8.45,8.57,8.57,0,0,1-.19,1.84c.64,1,1.23,2,1.79,2.95q.27-3.14.27-6.35c0-.2,0-.4,0-.61,0-1.67-.08-3.34-.2-5A12.28,12.28,0,0,1,497.94,482.83Z"/><path d="M494,482.83a8.3,8.3,0,0,1-2.47,6h0a8.48,8.48,0,0,1-5.24,2.43c-.23,0-.48,0-.73,0a8.39,8.39,0,0,1-4.95-1.6v0a8.42,8.42,0,0,1-2.85-3.6h0a8.63,8.63,0,0,1-.63-3.22,8.18,8.18,0,0,1,.49-2.81,8.43,8.43,0,0,1,8-5.64h.14a8.44,8.44,0,0,1,8.31,8.45Z"/><polygon points="853.84 543.71 853.84 559.3 911.26 683.71 942.04 683.71 998.41 543.71 959.19 543.71 925.47 636.35 901.43 574.64 939.23 574.64 939.19 543.71 853.84 543.71"/></svg>