<svg id="Capa_1" data-name="Capa 1" xmlns="http://www.w3.org/2000/svg" viewBox="0 0 1080 1080"><polygon points="472.58 484.54 40 484.54 40 579.51 40 623.19 40 843.64 202.22 843.64 202.22 623.19 472.58 623.19 472.58 484.54"/><path d="M775.61,236.36H40V373.28H735.24a170.51,170.51,0,0,1,170.5,170.5h0A169.17,169.17,0,0,1,736.57,713H471.27V843.64h306.4c144.88,0,262.33-117.45,262.33-262.33V500.75C1040,354.73,921.63,236.36,775.61,236.36Z"/><path d="M680.94,680.6A140.6,140.6,0,1,1,821.54,540,140.6,140.6,0,0,1,680.94,680.6ZM840.61,540A159.67,159.67,0,1,0,680.94,699.66,159.67,159.67,0,0,0,840.61,540Z"/><path d="M760.44,540c0,77.26-35.59,139.88-79.5,139.88s-79.5-62.62-79.5-139.88,35.6-139.88,79.5-139.88S760.44,462.74,760.44,540Zm-79.5-158.33C627.4,381.67,584,452.56,584,540s43.4,158.33,96.94,158.33S777.88,627.44,777.88,540,734.48,381.67,680.94,381.67Z"/><path d="M735.77,535.64c-51.29,51.26-117.21,95.22-147.23,98.2s-12.79-36.16,38.5-87.41,117.2-95.23,147.23-98.2S787.06,484.38,735.77,535.64Zm47.7-103.48c-38.83-2.27-116.08,44.55-172.56,104.58s-70.79,110.53-32,112.8S695,605,751.5,545,822.29,434.44,783.47,432.16Z"/><path d="M661.86,470c70.85,17.92,136.94,63.84,147.64,102.55s-38.08,55.56-108.93,37.63S563.63,546.34,552.94,507.62,591,452.06,661.86,470ZM533.17,508.12c9.93,50,84.49,105.56,166.52,124.2s140.49-6.73,130.56-56.67-84.48-105.56-166.52-124.2S523.24,458.18,533.17,508.12Z"/><circle cx="657.87" cy="504.6" r="15.87"/><circle cx="596.53" cy="496.02" r="15.87"/><circle cx="705.77" cy="623.56" r="15.87"/><circle cx="802.17" cy="542.92" r="15.87"/></svg>