<svg id="Capa_1" data-name="Capa 1" xmlns="http://www.w3.org/2000/svg" viewBox="0 0 1080 1080"><polygon points="663.92 514.43 464.46 514.43 464.46 558.22 464.46 578.36 464.46 680 539.26 680 539.26 578.36 663.92 578.36 663.92 514.43"/><path d="M803.63,400H464.46v63.13H785a78.62,78.62,0,0,1,78.61,78.61h0a78,78,0,0,1-78,78H663.31V680H804.58a121,121,0,0,0,121-121V521.9A121.91,121.91,0,0,0,803.63,400Z"/><path d="M294.46,663.28A123.28,123.28,0,1,1,417.75,540,123.28,123.28,0,0,1,294.46,663.28ZM434.46,540a140,140,0,1,0-140,140A140,140,0,0,0,434.46,540Z"/><path d="M364.17,540c0,67.74-31.21,122.66-69.71,122.66s-69.7-54.92-69.7-122.66S256,417.34,294.46,417.34,364.17,472.26,364.17,540ZM294.46,401.17c-46.94,0-85,62.16-85,138.83s38.06,138.83,85,138.83,85-62.16,85-138.83S341.41,401.17,294.46,401.17Z"/><path d="M342.54,536.18c-45,44.94-102.77,83.49-129.1,86.1s-11.21-31.7,33.76-76.64S350,462.14,376.3,459.53,387.51,491.23,342.54,536.18Zm41.82-90.74c-34-2-101.78,39.06-151.3,91.7S171,634.06,205,636.05,306.81,597,356.33,544.36,418.4,447.44,384.36,445.44Z"/><path d="M277.73,478.61c62.12,15.72,120.08,56,129.46,89.92s-33.39,48.72-95.51,33-120.08-56-129.46-89.92S215.61,462.89,277.73,478.61ZM164.89,512.05c8.71,43.79,74.08,92.55,146,108.9s123.18-5.9,114.48-49.69-74.08-92.56-146-108.91S156.19,468.25,164.89,512.05Z"/><circle cx="274.23" cy="508.96" r="13.92"/><circle cx="220.45" cy="501.44" r="13.92"/><circle cx="316.23" cy="613.27" r="13.92"/><circle cx="400.76" cy="542.56" r="13.92"/></svg>